# xmcd
#
# Track frame offsets: 
#        150
#        13941
#        28657
#        43450
#        56402
#        70749
#        85153
#        99762
#        113861
#        127655
#        141748
#        155442
#        168598
#        181309
#        194383
#        207203
#        221882
#        235176
#        248547
#        262992
#        275930
#        289007
#        302290
#        315997
#
# Disc length: 4383 seconds
#
# Revision: 2
# Processed by: cddbd v1.5.2PL0 Copyright (c) Steve Scherf et al.
# Submitted via: ExactAudioCopy v1.0b4
#
DISCID=58111d18
DTITLE=Blind Willie McTell - Jailhouse Blues
DYEAR=1900
DGENRE=Blues
TTITLE0=Georgia Rag
TTITLE1=Rough Alley Blues
TTITLE2=Low Rider's Blues
TTITLE3=Painful Blues
TTITLE4=Experience Blues
TTITLE5=Low down Blues
TTITLE6=Lonesome Day Blues
TTITLE7=Mama, Let Me Scoop For You
TTITLE8=Rollin' Mama Blues
TTITLE9=Searching The desert For The Blues
TTITLE10=It's Your Time To Worry
TTITLE11=Warm It Up To Me
TTITLE12=You Was Born To Die
TTITLE13=Don't You See How This World Made A Change
TTITLE14=It's A Good Little Thing
TTITLE15=Savannah Mama
TTITLE16=Lord Have Mercy If You Please
TTITLE17=My Baby's Gone
TTITLE18=Broke Down Engine
TTITLE19=Broke Down Engine No 2
TTITLE20=Love-Makin' Mama
TTITLE21=Death Room Blues
TTITLE22=Death Cell Blues
TTITLE23=Lord, Send Me An Angel
EXTD=
EXTT0=
EXTT1=
EXTT2=
EXTT3=
EXTT4=
EXTT5=
EXTT6=
EXTT7=
EXTT8=
EXTT9=
EXTT10=
EXTT11=
EXTT12=
EXTT13=
EXTT14=
EXTT15=
EXTT16=
EXTT17=
EXTT18=
EXTT19=
EXTT20=
EXTT21=
EXTT22=
EXTT23=
PLAYORDER=
